# xmcd
#
# Track frame offsets:
#	183
#	20295
#	44233
#	67455
#	89495
#	111783
#	132645
#	149910
#	183490
#	203875
#	222600
#	240718
#
# Disc length: 3512 seconds
# Revision: 6
# Processed by: cddbd v1.5.2PL0 Copyright (c) Steve Scherf et al.
# Submitted via: dBpowerAMP V12.0
#
DISCID=d10db60c
DTITLE=Lucky Peterson - Beyond Cool
DYEAR=1993
DGENRE=Blues
TTITLE0=I'm Talking to You
TTITLE1=Count on me
TTITLE2=Compared to What
TTITLE3=Up From The Skies
TTITLE4=Your Love is Amazing
TTITLE5=That's The Way it Ought to be
TTITLE6=Pouring Money on a Drowning Love Affair
TTITLE7=Beyond Cool
TTITLE8=You Haven't Done Nothin'
TTITLE9=Your Good Thing is About to Run Out
TTITLE10=You Can't Fool me
TTITLE11=Drivin' Wheel
EXTD=
EXTT0=
EXTT1=
EXTT2=
EXTT3=
EXTT4=
EXTT5=
EXTT6=
EXTT7=
EXTT8=
EXTT9=
EXTT10=
EXTT11=
PLAYORDER=
